<svg width="81" height="80" viewBox="0 0 81 80" fill="none" xmlns="http://www.w3.org/2000/svg">
<path d="M39.9443 4.44434C20.6162 4.44434 4.94434 20.1162 4.94434 39.4443C4.94434 58.7725 20.6162 74.4443 39.9443 74.4443C59.2725 74.4443 74.9443 58.7725 74.9443 39.4443C74.9443 20.1162 59.2725 4.44434 39.9443 4.44434ZM52.8662 52.7412L47.71 52.7178L39.9443 43.46L32.1865 52.71L27.0225 52.7334C26.6787 52.7334 26.3975 52.46 26.3975 52.1084C26.3975 51.96 26.4521 51.8193 26.5459 51.7021L36.71 39.5928L26.5459 27.4912C26.4515 27.3767 26.3991 27.2334 26.3975 27.085C26.3975 26.7412 26.6787 26.46 27.0225 26.46L32.1865 26.4834L39.9443 35.7412L47.7021 26.4912L52.8584 26.4678C53.2021 26.4678 53.4834 26.7412 53.4834 27.0928C53.4834 27.2412 53.4287 27.3818 53.335 27.499L43.1865 39.6006L53.3428 51.71C53.4365 51.8271 53.4912 51.9678 53.4912 52.1162C53.4912 52.46 53.21 52.7412 52.8662 52.7412Z" fill="#FF4D4F"/>
</svg>
