<svg width="15" height="10" viewBox="0 0 15 10" fill="none" xmlns="http://www.w3.org/2000/svg">
<path d="M13.2423 4.35154C13.2376 3.92966 13.236 3.50466 13.2345 3.08122H11.972C11.9673 3.5031 11.9642 3.92654 11.961 4.35154C11.536 4.3531 11.1142 4.35622 10.6923 4.36091V5.62497C11.1142 5.62966 11.5392 5.63279 11.961 5.63747C11.9657 6.05935 11.9657 6.48279 11.9689 6.90466H13.2329C13.2345 6.48279 13.2376 6.05935 13.2407 5.63435C13.6657 5.62966 14.0876 5.6281 14.5095 5.62341V4.35935C14.0892 4.35622 13.6642 4.35622 13.2423 4.35154ZM4.96105 4.35779C4.95948 4.86247 4.96105 5.36872 4.96261 5.87341C5.80948 5.90154 6.65792 5.88904 7.5048 5.90154C7.13136 7.78122 4.57667 8.3906 3.22511 7.16247C1.83448 6.08591 1.90011 3.72497 3.34542 2.72497C4.35636 1.91872 5.7923 2.11716 6.80323 2.8156C7.20011 2.44841 7.57198 2.05466 7.9298 1.64841C7.08917 0.978098 6.05792 0.499973 4.96105 0.549973C2.67042 0.473411 0.565733 2.47966 0.528233 4.77185C0.381358 6.64529 1.61261 8.48122 3.35011 9.14372C5.08136 9.81091 7.30167 9.35622 8.40792 7.79997C9.13761 6.81716 9.29542 5.55154 9.20948 4.36247C7.7923 4.35154 6.37667 4.3531 4.96105 4.35779V4.35779Z" fill="black" fill-opacity="0.85"/>
</svg>
